<svg width="429" height="274" viewBox="0 0 429 274" fill="none" xmlns="http://www.w3.org/2000/svg">
<rect width="429" height="274" fill="white"/>
<g filter="url(#filter0_d)">
<rect x="69" y="71" width="292" height="122" fill="white"/>
</g>
<path d="M147.445 104.136C146.773 105.288 145.069 106.968 142.813 108.72C138.973 111.72 134.821 113.808 130.429 114.912C130.789 115.392 130.885 115.536 131.053 116.04C133.573 115.224 134.341 114.936 135.637 114.384C137.389 113.616 138.853 112.824 140.653 111.696V121.08C140.653 122.376 140.629 122.952 140.509 123.528H141.973C141.877 122.928 141.853 122.424 141.853 121.032V110.904C143.989 109.368 146.149 107.496 147.517 106.008C148.093 105.408 148.189 105.312 148.549 105.048L147.445 104.136ZM169.451 109.56C171.707 109.584 171.707 109.584 172.403 109.632V108.432C171.443 108.552 170.891 108.576 169.475 108.576H159.107C158.723 108.576 158.291 108.6 158.075 108.6C158.339 108.24 158.459 107.952 158.867 107.064C159.083 106.536 159.275 106.128 159.371 105.888C159.443 105.768 159.467 105.672 159.491 105.624C159.827 104.88 159.827 104.88 160.019 104.52L158.747 104.016C158.579 104.928 158.243 105.768 157.499 107.352C156.179 110.16 154.547 112.248 152.339 113.976C152.795 114.216 152.915 114.312 153.323 114.744C155.051 113.184 156.251 111.72 157.571 109.56H164.579C164.315 114.576 163.235 117.336 160.667 119.64C159.203 120.936 157.883 121.728 155.987 122.472C156.419 122.808 156.563 123 156.779 123.48C158.459 122.616 159.323 122.112 160.403 121.344C162.179 120.096 163.619 118.296 164.459 116.328C165.203 114.576 165.491 113.088 165.731 109.56H169.451ZM177.155 108.792C178.331 108.552 180.923 108.312 186.107 107.976C189.467 107.76 189.467 107.76 191.339 107.4L191.363 107.496C190.883 107.664 190.667 107.76 190.403 107.856C189.131 108.36 188.171 108.984 187.139 109.92C185.147 111.744 184.091 113.928 184.091 116.136C184.091 118.368 185.219 120.192 187.355 121.392C188.507 122.064 189.611 122.448 191.411 122.808C191.771 122.856 191.867 122.88 192.131 122.952L192.347 121.656C191.627 121.656 190.931 121.536 189.995 121.296C186.875 120.432 185.219 118.608 185.219 116.04C185.219 114.312 185.915 112.728 187.331 111.168C188.627 109.752 190.379 108.624 192.203 108.048C193.211 107.712 194.219 107.568 195.515 107.52L195.395 106.344C194.891 106.488 194.339 106.536 190.835 106.68C180.227 107.352 180.227 107.352 179.243 107.424C178.523 107.472 178.211 107.496 177.947 107.496C177.803 107.496 177.803 107.496 177.083 107.472L177.155 108.792ZM206.243 114C206.531 113.808 207.395 113.16 207.587 113.016C208.667 112.152 212.195 108.984 213.251 107.928C215.267 105.912 215.267 105.912 215.603 105.768L214.811 104.808C214.547 104.976 214.355 105.024 213.827 105.072C211.979 105.216 208.355 105.384 206.483 105.384C205.475 105.384 205.091 105.36 204.491 105.24L204.563 106.512C205.115 106.416 205.403 106.392 205.931 106.368C209.051 106.296 212.891 106.08 213.731 105.936L213.755 105.96C213.659 106.056 213.515 106.2 213.419 106.296C211.019 108.912 203.843 115.08 201.563 116.496L202.307 117.504C205.043 114.96 208.979 113.376 212.507 113.376C215.867 113.376 217.907 114.84 217.907 117.216C217.907 119.52 216.395 121.128 213.563 121.848C213.227 120.768 212.963 120.192 212.459 119.496C211.547 118.224 210.179 117.528 208.595 117.528C206.699 117.528 205.427 118.584 205.427 120.168C205.427 120.84 205.715 121.536 206.171 121.992C207.059 122.88 208.475 123.288 210.563 123.288C215.675 123.288 219.059 120.888 219.059 117.264C219.059 114.312 216.515 112.416 212.579 112.416C210.275 112.416 208.043 113.016 206.315 114.096L206.243 114ZM212.483 122.136C211.547 122.28 211.163 122.328 210.467 122.328C207.971 122.328 206.435 121.488 206.435 120.12C206.435 119.112 207.275 118.464 208.619 118.464C210.539 118.464 211.835 119.688 212.483 122.136ZM241.451 109.56C243.707 109.584 243.707 109.584 244.403 109.632V108.432C243.443 108.552 242.891 108.576 241.475 108.576H231.107C230.723 108.576 230.291 108.6 230.075 108.6C230.339 108.24 230.459 107.952 230.867 107.064C231.083 106.536 231.275 106.128 231.371 105.888C231.443 105.768 231.467 105.672 231.491 105.624C231.827 104.88 231.827 104.88 232.019 104.52L230.747 104.016C230.579 104.928 230.243 105.768 229.499 107.352C228.179 110.16 226.547 112.248 224.339 113.976C224.795 114.216 224.915 114.312 225.323 114.744C227.051 113.184 228.251 111.72 229.571 109.56H236.579C236.315 114.576 235.235 117.336 232.667 119.64C231.203 120.936 229.883 121.728 227.987 122.472C228.419 122.808 228.563 123 228.779 123.48C230.459 122.616 231.323 122.112 232.403 121.344C234.179 120.096 235.619 118.296 236.459 116.328C237.203 114.576 237.491 113.088 237.731 109.56H241.451ZM259.571 106.824C260.843 106.872 261.587 107.016 262.547 107.4C265.163 108.408 266.723 110.784 266.723 113.76C266.723 116.736 265.115 119.328 262.451 120.624C261.323 121.152 260.195 121.512 258.443 121.848C258.755 122.208 258.827 122.352 259.019 122.928C260.603 122.544 261.491 122.256 262.523 121.8C265.859 120.336 267.875 117.312 267.875 113.76C267.875 111.528 267.059 109.512 265.571 108.072C264.059 106.632 261.827 105.84 259.259 105.84C255.611 105.84 252.659 107.328 250.859 110.112C249.851 111.672 249.275 113.592 249.275 115.44C249.275 118.512 250.859 120.888 252.923 120.888C254.531 120.888 255.923 119.4 257.267 116.232C258.323 113.76 259.235 109.992 259.571 106.824ZM258.419 106.872C258.251 108.384 258.059 109.464 257.627 111.456C256.931 114.528 255.827 117.24 254.651 118.728C254.075 119.448 253.523 119.784 252.899 119.784C251.483 119.784 250.379 117.888 250.379 115.44C250.379 112.272 251.987 109.44 254.627 107.952C255.755 107.304 256.883 106.992 258.419 106.872ZM275.003 121.968C275.003 123.048 274.955 123.696 274.859 124.344H276.083V122.712H289.019V124.344H290.243C290.147 123.648 290.099 123.048 290.099 121.944V106.608C290.099 105.648 290.123 105.096 290.219 104.52C289.547 104.616 288.899 104.64 287.771 104.64H277.403C276.299 104.64 275.627 104.616 274.883 104.52C274.979 105.168 275.003 105.768 275.003 106.8V121.968ZM276.083 105.6H289.019V112.848H276.083V105.6ZM276.083 113.784H289.019V121.752H276.083V113.784ZM303.251 107.112H302.843C300.779 107.112 298.763 106.992 297.995 106.824L297.947 107.976C298.235 107.952 298.355 107.952 298.547 107.952C298.643 107.952 298.739 107.952 298.811 107.952C299.699 107.976 302.171 108.024 302.603 108.024C302.771 108.024 302.963 108 303.059 108C303.035 108.048 303.011 108.072 302.987 108.12C302.939 108.192 302.939 108.192 302.891 108.264C301.331 111.216 299.051 114.168 297.299 115.512L298.235 116.448C298.547 115.896 299.051 115.344 299.963 114.6C301.955 112.944 303.947 112.008 305.531 112.008C306.779 112.008 307.427 112.68 307.643 114.192C306.035 114.912 304.859 115.536 304.043 116.136C302.459 117.312 301.691 118.488 301.691 119.736C301.691 122.064 303.707 123.216 307.811 123.216C309.467 123.216 311.459 123.048 313.427 122.712C313.859 122.664 313.979 122.64 314.315 122.616L314.123 121.344C312.875 121.824 310.139 122.232 307.931 122.232C304.403 122.232 302.747 121.416 302.747 119.712C302.747 118.128 304.187 116.856 307.739 115.2C307.763 115.536 307.763 115.632 307.763 116.04C307.763 117.576 307.691 119.232 307.595 119.76H308.699C308.675 119.496 308.675 119.328 308.675 119.136C308.675 118.896 308.675 118.416 308.699 117.888C308.723 117.432 308.723 116.712 308.723 116.28C308.723 115.512 308.723 115.368 308.675 114.792C311.267 113.712 313.907 112.8 315.155 112.56L314.531 111.408C314.171 111.672 314.099 111.696 312.995 112.104C311.747 112.56 309.683 113.328 308.555 113.808C308.459 113.088 308.315 112.704 308.027 112.296C307.523 111.552 306.611 111.096 305.651 111.096C304.331 111.096 303.131 111.456 302.003 112.176C301.643 112.392 301.403 112.584 300.851 113.016C300.731 113.112 300.587 113.232 300.371 113.4L300.323 113.352C300.947 112.728 301.211 112.464 301.451 112.2C302.411 111.072 303.227 109.8 304.163 108C307.067 107.928 309.635 107.712 311.963 107.352C312.443 107.28 312.563 107.256 312.923 107.232L312.779 106.104C312.299 106.296 311.987 106.368 311.411 106.464C309.779 106.728 307.643 106.944 306.131 106.992C304.883 107.04 304.835 107.04 304.571 107.112C304.715 106.92 305.051 106.224 305.387 105.36C305.795 104.328 305.795 104.328 306.035 103.992L304.739 103.656C304.667 104.352 304.235 105.552 303.491 107.088L303.251 107.112ZM172.428 146.328C172.452 146.328 172.476 146.328 172.5 146.328C172.548 146.328 172.62 146.328 172.716 146.352C174.492 146.448 175.788 146.496 176.628 146.496C177.756 146.496 178.5 146.472 179.508 146.4C179.532 146.976 179.532 147.816 179.556 148.92C179.58 149.808 179.58 149.808 179.724 152.52C179.748 152.856 179.748 153.096 179.772 153.24C179.22 152.904 178.068 152.664 176.916 152.664C175.26 152.664 174.012 153.12 173.196 154.032C172.74 154.536 172.476 155.208 172.476 155.88C172.476 157.728 174.18 159 176.628 159C178.332 159 179.772 158.376 180.444 157.392C180.78 156.864 180.924 156.264 180.924 155.352C180.924 154.944 180.9 154.776 180.876 154.56C181.044 154.68 181.092 154.728 181.332 154.848C183.228 155.952 184.02 156.528 184.908 157.464L185.484 156.336C185.22 156.216 185.196 156.192 184.908 155.976C183.54 154.92 182.412 154.224 180.852 153.504C180.828 152.928 180.828 152.928 180.756 151.608C180.612 148.608 180.588 148.464 180.588 146.88C180.588 146.544 180.588 146.544 180.588 146.304C181.932 146.16 183.204 145.944 184.212 145.704C184.596 145.608 184.596 145.608 184.812 145.56L184.764 144.48C183.636 144.912 182.34 145.176 180.588 145.368V145.104C180.588 144.624 180.588 144.216 180.588 143.904C180.588 143.376 180.588 143.16 180.588 142.848C180.588 141.744 180.636 140.832 180.732 140.256H179.412C179.46 140.616 179.484 140.784 179.484 141.168C179.484 142.728 179.484 142.728 179.508 145.464C178.572 145.512 177.876 145.536 176.772 145.536C174.564 145.536 173.412 145.44 172.452 145.176L172.428 146.328ZM179.796 154.224C179.82 154.224 179.844 154.848 179.844 155.04C179.844 156.072 179.676 156.72 179.316 157.128C178.812 157.68 177.732 158.04 176.628 158.04C174.804 158.04 173.556 157.176 173.556 155.904C173.556 154.56 174.9 153.672 177.012 153.672C178.044 153.672 178.716 153.816 179.796 154.224ZM168.396 140.28C168.372 140.616 168.372 140.664 168.276 141.024C167.292 144.96 166.836 148.344 166.836 151.536C166.836 153.84 167.1 156.48 167.508 158.4C167.628 158.88 167.628 158.904 167.676 159.264L168.804 159.072C168.78 158.904 168.756 158.784 168.756 158.664C168.756 157.368 169.548 154.656 170.7 152.16L169.908 151.752C169.86 151.848 169.836 151.92 169.764 152.112C168.732 154.464 168.492 155.232 168.204 156.912H168.132C168.132 156.408 168.084 155.664 168.06 155.184C167.988 154.512 167.916 152.352 167.916 151.584C167.916 147.744 168.828 142.32 169.764 140.592L168.396 140.28ZM193.38 140.688C193.452 141.144 193.452 141.408 193.452 141.768L193.428 143.352C193.212 151.224 193.212 151.632 193.212 153.144C193.212 155.592 193.5 156.744 194.412 157.824C195.348 158.928 196.74 159.48 198.684 159.48C201.42 159.48 203.604 158.496 205.284 156.528C206.292 155.304 206.988 153.936 207.828 151.392C207.252 151.032 207.084 150.912 206.676 150.528C206.34 152.16 206.028 153.048 205.452 154.176C204.06 156.864 201.684 158.4 198.924 158.4C197.076 158.4 195.804 157.872 195.108 156.792C194.556 155.928 194.388 154.992 194.388 152.904C194.388 151.32 194.532 144.792 194.604 143.352C194.7 141.744 194.748 141.24 194.844 140.688H193.38ZM200.676 141.6C201.54 142.656 202.404 143.976 203.1 145.416L203.988 144.888C203.244 143.52 202.404 142.248 201.516 141.144L200.676 141.6ZM203.244 140.376C204.132 141.504 204.9 142.704 205.596 144.072L206.484 143.544C205.74 142.2 204.972 141.048 204.06 139.92L203.244 140.376ZM217.116 141.072C217.26 141.432 217.26 141.432 217.404 142.296C217.668 143.904 217.812 144.624 218.076 145.752C216.948 146.568 216.276 147.24 215.676 148.176C214.764 149.52 214.284 151.128 214.284 152.688C214.284 155.232 215.556 156.984 217.38 156.984C218.628 156.984 219.9 156.192 221.34 154.512C223.212 152.28 224.964 148.752 226.092 144.912C229.716 145.536 231.708 147.624 231.708 150.768C231.708 152.88 230.748 154.68 228.948 155.952C227.484 157.008 225.42 157.752 223.428 157.968C223.836 158.448 223.932 158.616 224.1 159.048C226.02 158.712 228.084 157.896 229.428 156.984C231.612 155.496 232.788 153.36 232.788 150.84C232.788 149.04 232.236 147.528 231.108 146.328C229.908 145.032 228.348 144.264 226.308 143.976L226.836 141.744C227.1 140.64 227.124 140.568 227.268 140.232L226.02 139.968C225.972 140.616 225.684 142.2 225.276 143.904C224.892 143.88 224.58 143.88 224.412 143.88C222.516 143.88 220.692 144.312 219.012 145.152C218.676 143.64 218.34 141.552 218.316 140.832L217.116 141.072ZM218.316 146.76C218.868 149.088 219.78 151.728 220.716 153.648C219.516 155.136 218.34 155.952 217.404 155.952C216.132 155.952 215.316 154.632 215.316 152.616C215.316 151.488 215.724 150.096 216.396 148.92C216.924 148.032 217.428 147.432 218.316 146.76ZM221.436 152.856C221.388 152.64 221.364 152.568 221.244 152.256C220.404 150.336 219.708 148.224 219.228 146.136C220.764 145.248 222.396 144.816 224.244 144.816C224.532 144.816 224.628 144.816 225.012 144.84C224.292 147.408 222.9 150.6 221.748 152.304C221.604 152.52 221.58 152.592 221.484 152.856H221.436ZM246.516 139.8C246.588 140.352 246.612 140.472 246.612 141.672C246.636 145.32 246.9 152.256 247.044 153.12C246.468 152.904 245.484 152.76 244.38 152.76C241.236 152.76 239.028 154.176 239.028 156.192C239.028 158.232 240.828 159.504 243.708 159.504C245.316 159.504 246.612 159.096 247.404 158.328C248.028 157.704 248.292 156.912 248.292 155.568C248.292 155.064 248.268 154.632 248.196 154.368C248.46 154.512 248.484 154.536 248.676 154.608C250.212 155.256 250.86 155.616 252.204 156.504C253.692 157.488 254.316 158.016 254.82 158.64L255.588 157.44C254.94 157.032 254.94 157.032 254.556 156.768C252.108 154.968 250.332 154.008 248.172 153.336C248.052 151.848 247.908 148.776 247.86 146.664C250.116 146.616 251.388 146.472 254.268 146.016C254.604 145.944 254.7 145.944 254.988 145.92L254.796 144.672C253.548 145.224 250.524 145.632 247.836 145.632C247.764 143.544 247.764 143.52 247.764 143.064C247.764 140.712 247.764 140.4 247.884 139.8H246.516ZM247.068 154.128C247.092 154.152 247.14 155.16 247.14 155.664C247.14 156.648 246.972 157.176 246.54 157.584C245.916 158.136 244.86 158.472 243.636 158.472C242.292 158.472 241.092 158.064 240.492 157.416C240.252 157.152 240.108 156.696 240.108 156.264C240.108 154.752 241.716 153.792 244.284 153.792C245.292 153.792 245.964 153.864 247.068 154.128ZM266.436 141.456C269.508 142.368 272.244 142.824 275.964 143.064L276.204 141.984C272.46 141.888 268.98 141.312 266.868 140.448L266.436 141.456ZM263.772 149.136C264.444 148.872 264.972 148.704 266.148 148.44C268.884 147.84 271.212 147.528 272.988 147.528C274.284 147.528 275.244 147.72 275.964 148.128C277.02 148.704 277.596 149.712 277.596 150.96C277.596 153.408 276.036 155.472 273.156 156.912C271.572 157.68 269.652 158.208 267.612 158.376C267.852 158.784 267.9 158.88 268.164 159.528C271.572 158.856 273.036 158.352 274.836 157.224C277.356 155.616 278.748 153.432 278.748 151.008C278.748 149.448 278.076 148.2 276.828 147.408C275.868 146.808 274.596 146.52 272.844 146.52C271.068 146.52 268.644 146.832 265.668 147.432C263.964 147.768 263.964 147.768 263.412 147.816L263.772 149.136Z" fill="#222222"/>
<defs>
<filter id="filter0_d" x="49" y="55" width="332" height="162" filterUnits="userSpaceOnUse" color-interpolation-filters="sRGB">
<feFlood flood-opacity="0" result="BackgroundImageFix"/>
<feColorMatrix in="SourceAlpha" type="matrix" values="0 0 0 0 0 0 0 0 0 0 0 0 0 0 0 0 0 0 127 0"/>
<feOffset dy="4"/>
<feGaussianBlur stdDeviation="10"/>
<feColorMatrix type="matrix" values="0 0 0 0 0 0 0 0 0 0 0 0 0 0 0 0 0 0 0.25 0"/>
<feBlend mode="normal" in2="BackgroundImageFix" result="effect1_dropShadow"/>
<feBlend mode="normal" in="SourceGraphic" in2="effect1_dropShadow" result="shape"/>
</filter>
</defs>
</svg>
