<svg width="114" height="27" viewBox="0 0 114 27" fill="none" xmlns="http://www.w3.org/2000/svg">
<path d="M15.2292 25.651C15.1362 24.814 15.1362 24.132 15.1362 23.326V9.19C17.8642 7.361 20.3132 5.315 22.2662 3.083C22.8552 2.432 23.2272 1.936 23.8472 1.316L23.1032 0.757998C22.7002 1.44 22.2972 1.936 21.7082 2.618C16.8722 8.074 9.09121 12.569 0.876211 15.111C1.09321 15.297 1.24821 15.607 1.31021 15.824C5.99121 14.305 10.5172 12.197 14.4852 9.624L14.4232 15.421V23.326C14.4232 24.132 14.4232 24.814 14.3302 25.651H15.2292ZM52.6128 7.33C53.4188 7.33 54.1008 7.33 54.9378 7.423V6.524C54.1008 6.617 53.4188 6.617 52.6128 6.617H39.9958L36.0588 6.679C36.7098 5.532 37.2988 4.292 37.7948 3.052C38.1668 2.153 38.4458 1.378 38.6628 0.881998L37.7948 0.634C37.7018 1.192 37.4538 1.936 37.1128 2.804C35.2838 7.361 32.5558 11.205 29.1768 13.809C29.4558 13.933 29.6728 14.119 29.8278 14.305C32.0288 12.507 34.0438 10.089 35.6868 7.33H45.3898C45.2658 12.538 44.1808 16.103 41.9178 19.141C40.2128 21.435 37.1748 23.667 33.9198 24.938C34.1678 25.124 34.3228 25.31 34.4468 25.558C37.6088 24.194 40.6778 21.931 42.4758 19.575C44.8628 16.444 45.9788 12.631 46.1028 7.33H52.6128ZM85.1628 13.065C85.1628 6.462 79.6758 2.99 74.1888 2.99C67.1208 2.99 61.4478 8.136 61.4478 15.235C61.4478 19.141 63.4938 22.086 66.0048 22.086C67.0588 22.086 67.9888 21.59 69.1048 20.226C71.2748 17.591 73.3518 11.701 74.2508 3.61C79.4278 3.734 84.4808 6.834 84.4808 13.065C84.4808 16.382 83.1478 18.955 81.0398 20.784C79.2728 22.334 76.8548 23.543 73.9408 24.07C74.1578 24.287 74.2818 24.504 74.3438 24.721C77.1648 24.101 79.7068 22.923 81.5668 21.249C83.7678 19.265 85.1628 16.537 85.1628 13.065ZM73.5688 3.61C72.7008 11.453 70.6858 17.188 68.5778 19.854C67.7098 20.939 66.8418 21.404 65.9738 21.404C63.9898 21.404 62.1298 19.017 62.1298 15.235C62.1298 8.57 67.4308 3.796 73.5688 3.61ZM113.063 26.643H113.838C113.745 25.837 113.745 25.124 113.745 24.318V3.765C113.745 2.959 113.745 2.246 113.838 1.44C113.032 1.533 112.319 1.533 111.513 1.533H97.0358C96.2298 1.533 95.5168 1.533 94.7108 1.44C94.8038 2.246 94.8038 2.959 94.8038 3.765V24.318C94.8038 25.124 94.8038 25.837 94.7108 26.643H95.4858V24.349H113.063V26.643ZM95.4858 12.817H113.063V23.729H95.4858V12.817ZM95.4858 12.197V2.153H113.063V12.197H95.4858Z" fill="#222222"/>
</svg>
